<svg width="7" height="10" viewBox="0 0 7 10" fill="none" xmlns="http://www.w3.org/2000/svg">
<path d="M3.5 9L3.11424 9.3181L3.5 9.78591L3.88576 9.3181L3.5 9ZM6.38576 6.28636C6.56144 6.07331 6.53115 5.75818 6.3181 5.58249C6.10505 5.40681 5.78992 5.4371 5.61424 5.65015L6.38576 6.28636ZM1.38576 5.65015C1.21008 5.4371 0.894949 5.40681 0.681899 5.58249C0.468849 5.75818 0.438557 6.07331 0.614239 6.28636L1.38576 5.65015ZM3 0V9H4V0H3ZM3.88576 9.3181L6.38576 6.28636L5.61424 5.65015L3.11424 8.6819L3.88576 9.3181ZM3.88576 8.6819L1.38576 5.65015L0.614239 6.28636L3.11424 9.3181L3.88576 8.6819Z" fill="#0C0C0D"/>
</svg>
