<svg width="7" height="10" viewBox="0 0 7 10" fill="none" xmlns="http://www.w3.org/2000/svg">
<path d="M3.5 1L3.88576 0.681899L3.5 0.214087L3.11424 0.681899L3.5 1ZM5.61424 4.34985C5.78992 4.5629 6.10505 4.59319 6.3181 4.41751C6.53115 4.24182 6.56144 3.92669 6.38576 3.71364L5.61424 4.34985ZM0.614239 3.71364C0.438557 3.92669 0.468849 4.24182 0.681899 4.41751C0.894949 4.59319 1.21008 4.5629 1.38576 4.34985L0.614239 3.71364ZM4 10V1H3V10H4ZM3.11424 1.3181L5.61424 4.34985L6.38576 3.71364L3.88576 0.681899L3.11424 1.3181ZM3.11424 0.681899L0.614239 3.71364L1.38576 4.34985L3.88576 1.3181L3.11424 0.681899Z" fill="#0C0C0D"/>
</svg>
